<svg width="32" height="32" viewBox="0 0 32 32" fill="none" xmlns="http://www.w3.org/2000/svg">
<path d="M14.6084 2.54689C15.3865 1.77504 16.6135 1.77504 17.3916 2.54689L19.9535 5.08818C20.7807 5.90873 20.7807 7.27803 19.9535 8.09859L17.3916 10.6399C16.6135 11.4117 15.3865 11.4117 14.6084 10.6399L12.0465 8.09859C11.2193 7.27803 11.2193 5.90873 12.0465 5.08818L14.6084 2.54689Z" fill="url(#paint0_linear_122_1520)"/>
<path d="M14.6084 20.9983C15.3865 20.2265 16.6135 20.2265 17.3916 20.9983L19.9535 23.5396C20.7807 24.3602 20.7807 25.7295 19.9535 26.55L17.3916 29.0913C16.6135 29.8632 15.3865 29.8632 14.6084 29.0913L12.0465 26.55C11.2193 25.7295 11.2193 24.3602 12.0465 23.5396L14.6084 20.9983Z" fill="url(#paint1_linear_122_1520)"/>
<path fill-rule="evenodd" clip-rule="evenodd" d="M31.2257 17.8803C32.2581 16.8548 32.2581 15.1452 31.2257 14.1197L17.7407 0.724841C16.7678 -0.241612 15.2322 -0.241614 14.2593 0.724839L0.774266 14.1197C-0.258088 15.1452 -0.258089 16.8548 0.774264 17.8803L14.2593 31.2752C15.2322 32.2416 16.7678 32.2416 17.7407 31.2752L31.2257 17.8803ZM21.0244 5.09207L17.3955 1.47287C16.6164 0.695844 15.3836 0.695845 14.6045 1.47287L10.9756 5.09207C10.1536 5.91186 10.1536 7.27491 10.9756 8.0947L12.1231 9.23915C13.1506 10.2639 13.1506 11.9677 12.1231 12.9924L10.9756 14.1369C10.1536 14.9567 10.1536 16.3197 10.9756 17.1395L12.3045 18.4649C13.332 19.4896 13.332 21.1934 12.3045 22.2182L10.9756 23.5435C10.1536 24.3633 10.1536 25.7263 10.9756 26.5461L14.6045 30.1653C15.3836 30.9424 16.6164 30.9424 17.3955 30.1653L21.0244 26.5461C21.8464 25.7263 21.8464 24.3633 21.0244 23.5435L19.6955 22.2182C18.668 21.1934 18.668 19.4896 19.6955 18.4649L21.0244 17.1395C21.8464 16.3197 21.8464 14.9567 21.0244 14.1369L19.8769 12.9924C18.8494 11.9677 18.8494 10.2639 19.8769 9.23915L21.0244 8.0947C21.8464 7.27491 21.8464 5.91186 21.0244 5.09207Z" fill="url(#paint2_linear_122_1520)"/>
<path fill-rule="evenodd" clip-rule="evenodd" d="M31.2257 17.8803C32.2581 16.8548 32.2581 15.1452 31.2257 14.1197L17.7407 0.724841C16.7678 -0.241612 15.2322 -0.241614 14.2593 0.724839L0.774266 14.1197C-0.258088 15.1452 -0.258089 16.8548 0.774264 17.8803L14.2593 31.2752C15.2322 32.2416 16.7678 32.2416 17.7407 31.2752L31.2257 17.8803ZM21.0244 5.09207L17.3955 1.47287C16.6164 0.695844 15.3836 0.695845 14.6045 1.47287L10.9756 5.09207C10.1536 5.91186 10.1536 7.27491 10.9756 8.0947L12.1231 9.23915C13.1506 10.2639 13.1506 11.9677 12.1231 12.9924L10.9756 14.1369C10.1536 14.9567 10.1536 16.3197 10.9756 17.1395L12.3045 18.4649C13.332 19.4896 13.332 21.1934 12.3045 22.2182L10.9756 23.5435C10.1536 24.3633 10.1536 25.7263 10.9756 26.5461L14.6045 30.1653C15.3836 30.9424 16.6164 30.9424 17.3955 30.1653L21.0244 26.5461C21.8464 25.7263 21.8464 24.3633 21.0244 23.5435L19.6955 22.2182C18.668 21.1934 18.668 19.4896 19.6955 18.4649L21.0244 17.1395C21.8464 16.3197 21.8464 14.9567 21.0244 14.1369L19.8769 12.9924C18.8494 11.9677 18.8494 10.2639 19.8769 9.23915L21.0244 8.0947C21.8464 7.27491 21.8464 5.91186 21.0244 5.09207Z" fill="url(#paint3_linear_122_1520)"/>
<defs>
<linearGradient id="paint0_linear_122_1520" x1="26.8571" y1="32" x2="4" y2="5.42857" gradientUnits="userSpaceOnUse">
<stop stop-color="#6F63AD"/>
<stop offset="1" stop-color="#6F63AD" stop-opacity="0.73"/>
</linearGradient>
<linearGradient id="paint1_linear_122_1520" x1="26.8571" y1="32" x2="4" y2="5.42857" gradientUnits="userSpaceOnUse">
<stop stop-color="#6F63AD"/>
<stop offset="1" stop-color="#6F63AD" stop-opacity="0.73"/>
</linearGradient>
<linearGradient id="paint2_linear_122_1520" x1="26.8571" y1="32" x2="4" y2="5.42857" gradientUnits="userSpaceOnUse">
<stop stop-color="#6F63AD"/>
<stop offset="1" stop-color="#6F63AD" stop-opacity="0.73"/>
</linearGradient>
<linearGradient id="paint3_linear_122_1520" x1="26.8571" y1="32" x2="4" y2="5.42857" gradientUnits="userSpaceOnUse">
<stop stop-color="#6F63AD"/>
<stop offset="1" stop-color="#6F63AD" stop-opacity="0.73"/>
</linearGradient>
</defs>
</svg>
