<svg width="100%" height="100%" viewBox="0 0 24 24" xmlns="http://www.w3.org/2000/svg">
<path d="M1.3934 22.6066C0.612355 21.8255 0.612355 20.5592 1.3934 19.7782L19.7782 1.39339C20.5592 0.61234 21.8256 0.61234 22.6066 1.39339C23.3877 2.17444 23.3877 3.44077 22.6066 4.22182L4.22183 22.6066C3.44078 23.3876 2.17445 23.3876 1.3934 22.6066Z" />
<path d="M22.6273 22.6274C21.8462 23.4085 20.5799 23.4085 19.7989 22.6274L1.41409 4.24263C0.633039 3.46158 0.633039 2.19525 1.41409 1.4142C2.19514 0.633156 3.46147 0.633156 4.24251 1.4142L22.6273 19.799C23.4083 20.58 23.4083 21.8464 22.6273 22.6274Z"/>
</svg>
