<svg width="64" height="64" viewBox="0 0 64 64" xmlns="http://www.w3.org/2000/svg">
<path d="M32 0C14.3216 0 0 14.3282 0 32C0 49.6718 14.3216 64 32 64C49.6784 64 64 49.6718 64 32C64 14.3282 49.6784 0 32 0ZM46.831 41.169C48.3918 42.7298 48.3918 45.2637 46.831 46.8245C46.0473 47.6082 45.022 48 44.0033 48C42.978 48 41.9526 47.6082 41.1755 46.831L32 37.6555L22.831 46.831C22.0473 47.6082 21.022 48 20.0033 48C18.978 48 17.9527 47.6082 17.1755 46.831C15.6147 45.2702 15.6147 42.7363 17.1755 41.1755L26.3445 32L17.169 22.831C15.6082 21.2702 15.6082 18.7363 17.169 17.1755C18.7298 15.6147 21.2637 15.6147 22.8245 17.1755L32 26.3445L41.169 17.1755C42.7298 15.6147 45.2637 15.6147 46.8245 17.1755C48.3853 18.7363 48.3853 21.2702 46.8245 22.831L37.6555 32L46.831 41.169Z"/>
<path d="M46.831 41.169C48.3918 42.7298 48.3918 45.2637 46.831 46.8245C46.0473 47.6082 45.022 48 44.0033 48C42.978 48 41.9526 47.6082 41.1755 46.831L32 37.6555L22.831 46.831C22.0473 47.6082 21.022 48 20.0033 48C18.978 48 17.9527 47.6082 17.1755 46.831C15.6147 45.2702 15.6147 42.7363 17.1755 41.1755L26.3445 32L17.169 22.831C15.6082 21.2702 15.6082 18.7363 17.169 17.1755C18.7298 15.6147 21.2637 15.6147 22.8245 17.1755L32 26.3445L41.169 17.1755C42.7298 15.6147 45.2637 15.6147 46.8245 17.1755C48.3853 18.7363 48.3853 21.2702 46.8245 22.831L37.6555 32L46.831 41.169Z" fill="white"/>
</svg>
