<svg width="35" height="34" viewBox="0 0 35 34" xmlns="http://www.w3.org/2000/svg">
<path d="M26.8139 34H7.84523C3.69973 34 0.331299 30.3252 0.331299 25.8028V8.19724C0.331299 3.67854 3.69973 0 7.84523 0H26.8174C30.9594 0 34.3313 3.67475 34.3313 8.19724V25.8065C34.3278 30.3252 30.9594 34 26.8139 34ZM7.84523 1.7825C4.60168 1.7825 1.96521 4.65873 1.96521 8.19724V25.8065C1.96521 29.3451 4.60168 32.2213 7.84523 32.2213H26.8174C30.0609 32.2213 32.6974 29.3451 32.6974 25.8065V8.19724C32.6974 4.65873 30.0609 1.7825 26.8174 1.7825H7.84523Z" />
<path d="M6 23.5455V9H10.9148C12.0511 9 12.9839 9.19413 13.7131 9.58239C14.4422 9.96591 14.982 10.4938 15.3324 11.1662C15.6828 11.8385 15.858 12.6032 15.858 13.4602C15.858 14.3172 15.6828 15.0772 15.3324 15.7401C14.982 16.4029 14.4446 16.9238 13.7202 17.3026C12.9957 17.6766 12.0701 17.8636 10.9432 17.8636H6.96591V16.2727H10.8864C11.6629 16.2727 12.2879 16.1591 12.7614 15.9318C13.2396 15.7045 13.5852 15.3826 13.7983 14.9659C14.0161 14.5445 14.125 14.0426 14.125 13.4602C14.125 12.8778 14.0161 12.3688 13.7983 11.9332C13.5805 11.4976 13.2325 11.1615 12.7543 10.9247C12.276 10.6832 11.6439 10.5625 10.858 10.5625H7.76136V23.5455H6ZM12.8466 17.0114L16.4261 23.5455H14.3807L10.858 17.0114H12.8466Z"/>
<path d="M27.5455 9H29.3068V18.6307C29.3068 19.625 29.0724 20.5128 28.6037 21.294C28.1397 22.0706 27.4839 22.6837 26.6364 23.1335C25.7888 23.5786 24.7945 23.8011 23.6534 23.8011C22.5123 23.8011 21.518 23.5786 20.6705 23.1335C19.8229 22.6837 19.1648 22.0706 18.696 21.294C18.232 20.5128 18 19.625 18 18.6307V9H19.7614V18.4886C19.7614 19.1989 19.9176 19.831 20.2301 20.3849C20.5426 20.9342 20.9877 21.3674 21.5653 21.6847C22.1477 21.9972 22.8438 22.1534 23.6534 22.1534C24.4631 22.1534 25.1591 21.9972 25.7415 21.6847C26.3239 21.3674 26.7689 20.9342 27.0767 20.3849C27.3892 19.831 27.5455 19.1989 27.5455 18.4886V9Z"/>
</svg>
