<svg viewBox="0 0 64 80" xmlns="http://www.w3.org/2000/svg">
<path d="M29.0425 4.88825C30.5895 3.40685 33.0288 3.40685 34.5757 4.88825L39.6689 9.76577C41.3135 11.3407 41.3135 13.9688 39.6689 15.5437L34.5757 20.4212C33.0288 21.9026 30.5895 21.9026 29.0425 20.4212L23.9493 15.5437C22.3047 13.9688 22.3047 11.3407 23.9493 9.76577L29.0425 4.88825Z"/>
<path d="M29.0425 40.3022C30.5895 38.8208 33.0288 38.8208 34.5757 40.3022L39.6689 45.1797C41.3135 46.7546 41.3135 49.3827 39.6689 50.9576L34.5757 55.8351C33.0288 57.3165 30.5895 57.3165 29.0425 55.8351L23.9493 50.9576C22.3047 49.3827 22.3047 46.7546 23.9493 45.1797L29.0425 40.3022Z"/>
<path fill-rule="evenodd" clip-rule="evenodd" d="M62.079 34.3177C64.1314 32.3495 64.1314 29.0683 62.079 27.1001L35.2698 1.39119C33.3355 -0.463728 30.2827 -0.463732 28.3484 1.39119L1.5393 27.1001C-0.513096 29.0682 -0.5131 32.3495 1.53929 34.3177L28.3484 60.0266C30.2827 61.8815 33.3355 61.8815 35.2698 60.0266L62.079 34.3177ZM41.7981 9.77324L34.5835 2.82689C33.0346 1.33554 30.5837 1.33554 29.0348 2.82689L21.8202 9.77324C20.186 11.3467 20.186 13.9628 21.8202 15.5362L24.1016 17.7328C26.1443 19.6996 26.1443 22.9697 24.1016 24.9365L21.8202 27.133C20.186 28.7065 20.186 31.3226 21.8202 32.896L24.4622 35.4397C26.5049 37.4065 26.5049 40.6766 24.4622 42.6434L21.8202 45.1872C20.186 46.7606 20.186 49.3767 21.8202 50.9502L29.0348 57.8965C30.5837 59.3879 33.0346 59.3879 34.5835 57.8965L41.7981 50.9502C43.4323 49.3767 43.4323 46.7606 41.7981 45.1872L39.1561 42.6434C37.1134 40.6766 37.1134 37.4065 39.1561 35.4397L41.7981 32.896C43.4323 31.3225 43.4323 28.7064 41.7981 27.133L39.5167 24.9365C37.474 22.9697 37.474 19.6996 39.5167 17.7328L41.7981 15.5362C43.4323 13.9628 43.4323 11.3467 41.7981 9.77324Z"/>
<path d="M17.6641 79.4178H6.82422L12.8008 68.2166H6.82422V65.4139H17.6641L11.707 76.6151H17.6641V79.4178Z M33.1719 79.4178H30.5059V68.9588H31.1504L32.0293 69.9744C32.459 69.5838 32.944 69.2843 33.4844 69.076C34.0312 68.8612 34.6009 68.7537 35.1934 68.7537C35.8314 68.7537 36.4336 68.8774 37 69.1248C37.5664 69.3657 38.0612 69.701 38.4844 70.1307C38.9076 70.5539 39.2396 71.0519 39.4805 71.6248C39.7279 72.1912 39.8516 72.7967 39.8516 73.4412V79.4178H37.1855V73.4412C37.1855 73.1678 37.1335 72.9106 37.0293 72.6697C36.9251 72.4224 36.7819 72.2075 36.5996 72.0252C36.4173 71.8429 36.2057 71.6997 35.9648 71.5955C35.724 71.4914 35.4668 71.4393 35.1934 71.4393C34.9134 71.4393 34.6497 71.4914 34.4023 71.5955C34.1549 71.6997 33.9401 71.8429 33.7578 72.0252C33.5755 72.2075 33.4323 72.4224 33.3281 72.6697C33.224 72.9106 33.1719 73.1678 33.1719 73.4412V79.4178Z M29.0312 74.0955C29.0312 74.8768 28.8913 75.6059 28.6113 76.283C28.3314 76.9536 27.9505 77.5363 27.4688 78.0311C26.987 78.5194 26.4206 78.9067 25.7695 79.1932C25.125 79.4731 24.4316 79.6131 23.6895 79.6131C22.9538 79.6131 22.2604 79.4731 21.6094 79.1932C20.9648 78.9067 20.3984 78.5194 19.9102 78.0311C19.4284 77.5363 19.0475 76.9536 18.7676 76.283C18.4876 75.6059 18.3477 74.8768 18.3477 74.0955C18.3477 73.3013 18.4876 72.5656 18.7676 71.8885C19.0475 71.2114 19.4284 70.6287 19.9102 70.1404C20.3984 69.6457 20.9648 69.2583 21.6094 68.9783C22.2604 68.6984 22.9538 68.5584 23.6895 68.5584C24.4316 68.5584 25.125 68.6919 25.7695 68.9588C26.4206 69.2192 26.987 69.5936 27.4688 70.0819C27.9505 70.5636 28.3314 71.1463 28.6113 71.8299C28.8913 72.507 29.0312 73.2622 29.0312 74.0955ZM26.3457 74.0955C26.3457 73.6658 26.2741 73.2785 26.1309 72.9334C25.9941 72.5819 25.8053 72.2824 25.5645 72.035C25.3236 71.7811 25.0404 71.589 24.7148 71.4588C24.3958 71.3221 24.054 71.2537 23.6895 71.2537C23.3249 71.2537 22.9798 71.3221 22.6543 71.4588C22.3353 71.589 22.0553 71.7811 21.8145 72.035C21.5801 72.2824 21.3945 72.5819 21.2578 72.9334C21.1211 73.2785 21.0527 73.6658 21.0527 74.0955C21.0527 74.4992 21.1211 74.8735 21.2578 75.2186C21.3945 75.5636 21.5801 75.8631 21.8145 76.117C22.0553 76.3709 22.3353 76.5727 22.6543 76.7225C22.9798 76.8657 23.3249 76.9373 23.6895 76.9373C24.054 76.9373 24.3958 76.869 24.7148 76.7322C25.0404 76.5955 25.3236 76.4035 25.5645 76.1561C25.8053 75.9087 25.9941 75.6092 26.1309 75.2576C26.2741 74.9061 26.3457 74.5187 26.3457 74.0955Z M51.8828 79.4178H51.2383L50.2031 77.9822C49.9492 78.2101 49.679 78.425 49.3926 78.6268C49.1126 78.8221 48.8164 78.9946 48.5039 79.1444C48.1914 79.2876 47.8691 79.4015 47.5371 79.4862C47.2116 79.5708 46.8796 79.6131 46.541 79.6131C45.8053 79.6131 45.112 79.4894 44.4609 79.242C43.8164 78.9946 43.25 78.6365 42.7617 78.1678C42.2799 77.6925 41.8991 77.1131 41.6191 76.4295C41.3392 75.7459 41.1992 74.9679 41.1992 74.0955C41.1992 73.2817 41.3392 72.5363 41.6191 71.8592C41.8991 71.1756 42.2799 70.5897 42.7617 70.1014C43.25 69.6131 43.8164 69.2355 44.4609 68.9686C45.112 68.6951 45.8053 68.5584 46.541 68.5584C46.8796 68.5584 47.2148 68.6007 47.5469 68.6854C47.8789 68.77 48.2012 68.8872 48.5137 69.0369C48.8262 69.1867 49.1224 69.3625 49.4023 69.5643C49.6888 69.7661 49.9557 69.9842 50.2031 70.2186L51.2383 68.9783H51.8828V79.4178ZM49.1973 74.0955C49.1973 73.7309 49.1257 73.3794 48.9824 73.0408C48.8457 72.6958 48.6569 72.3931 48.416 72.1326C48.1751 71.8657 47.8919 71.6541 47.5664 71.4979C47.2474 71.3351 46.9056 71.2537 46.541 71.2537C46.1764 71.2537 45.8314 71.3156 45.5059 71.4393C45.1868 71.563 44.9069 71.7453 44.666 71.9862C44.4316 72.227 44.2461 72.5265 44.1094 72.8846C43.9727 73.2362 43.9043 73.6398 43.9043 74.0955C43.9043 74.5513 43.9727 74.9582 44.1094 75.3162C44.2461 75.6678 44.4316 75.964 44.666 76.2049C44.9069 76.4458 45.1868 76.6281 45.5059 76.7518C45.8314 76.8755 46.1764 76.9373 46.541 76.9373C46.9056 76.9373 47.2474 76.8592 47.5664 76.7029C47.8919 76.5402 48.1751 76.3286 48.416 76.0682C48.6569 75.8013 48.8457 75.4985 48.9824 75.16C49.1257 74.8149 49.1973 74.4601 49.1973 74.0955Z M56.6094 79.4178H53.9238V64.7987H56.6094V79.4178Z" />
</svg>
