<svg viewBox="0 0 64 53" xmlns="http://www.w3.org/2000/svg">
<path d="M14.074 12.0246V40.1661H4.68263C2.09641 40.1726 0 38.0566 0 35.5227V16.6746C0 14.108 2.07681 12.0246 4.68263 12.0246H14.074ZM51.3587 21.1221L44.7233 14.4868C43.3584 13.1218 41.1248 13.1153 39.7534 14.4868C38.3688 15.8713 38.3753 18.0853 39.7534 19.4567L46.3887 26.0921L39.7468 32.734C38.3819 34.0989 38.3753 36.3325 39.7468 37.704C41.1314 39.0885 43.3453 39.082 44.7168 37.704L51.3522 31.0686L57.9941 37.7105C59.359 39.0755 61.5926 39.082 62.964 37.7105C64.3486 36.326 64.3421 34.112 62.964 32.7405L56.3352 26.0986L62.9706 19.4633C64.3355 18.0983 64.3421 15.8648 62.9706 14.4933C61.586 13.1087 59.3721 13.1153 58.0006 14.4933L51.3587 21.1221ZM29.0819 0.771947C31.1522 -0.782398 32.8306 0.0927372 32.8306 2.65937V49.5379C32.8306 52.1372 31.1653 52.9927 29.0819 51.4253L14.074 40.1726V12.0246L29.0819 0.771947Z"/>
</svg>
