<svg viewBox="0 0 64 64" xmlns="http://www.w3.org/2000/svg">
<path d="M29.7069 0.230853C28.3433 0.870848 27.8561 1.58072 26.9934 4.22429C26.2836 6.36697 26.1308 6.71506 25.5463 7.32697C25.0173 7.89774 24.7946 8.00875 22.6382 8.89952C19.9248 10.0267 19.8973 10.0267 18.9648 9.97054C18.2275 9.92874 17.7958 9.76156 15.9039 8.82965C13.3713 7.57709 12.6758 7.42427 11.3958 7.84157C10.7839 8.05055 10.4078 8.31439 9.36418 9.35798C8.25137 10.4852 8.07047 10.7216 7.8615 11.4451C7.48599 12.7395 7.62509 13.3651 8.84957 15.8422C9.79585 17.7622 9.92058 18.1102 9.99046 18.9729C10.046 19.9192 10.0185 20.0302 9.36418 21.5473C8.9743 22.4237 8.557 23.4816 8.40419 23.8989C8.0979 24.7753 7.27701 25.7634 6.55342 26.1252C6.27522 26.2643 5.16176 26.6679 4.07638 27.0297C0.681791 28.1562 0 28.9771 0 31.9825C0 33.6105 0.180897 34.3204 0.765382 35.0995C1.32179 35.8368 2.00358 36.1986 4.27164 36.964C5.44061 37.3539 6.63701 37.8404 6.9433 38.0494C7.62509 38.4947 8.12598 39.204 8.4597 40.192C8.61251 40.6093 9.03047 41.6392 9.39226 42.4738C10.0042 43.8792 10.046 44.0464 9.99046 44.9228C9.94867 45.7718 9.82328 46.1055 8.84957 48.0816C7.61138 50.5998 7.47227 51.198 7.8615 52.5204C8.07047 53.244 8.237 53.4804 9.36418 54.6076C10.4633 55.693 10.7558 55.902 11.4651 56.1103C12.7313 56.5139 13.3576 56.3748 16.0012 55.0804C18.1439 54.0368 18.3529 53.9676 19.1737 53.9676C19.9254 53.9676 20.3146 54.0786 21.72 54.6775C22.6382 55.053 23.6544 55.4703 23.9744 55.582C24.7953 55.8745 25.5188 56.4029 25.9361 57.0291C26.1308 57.3354 26.6179 58.5318 27.0078 59.7008C27.815 62.0799 28.1768 62.7205 28.9977 63.2769C29.8604 63.8614 30.375 63.9868 32.003 63.9868C33.6448 63.9868 34.1457 63.8614 35.0365 63.2632C35.8855 62.6787 36.2055 62.0943 37.0264 59.7015C38.0699 56.5844 38.3762 56.2233 40.6025 55.3599C41.3398 55.068 42.3977 54.6363 42.9261 54.3999C43.6777 54.0799 44.1088 53.9689 44.8043 53.9689C45.6532 53.9689 45.8478 54.0244 48.0042 55.0817C50.6341 56.3617 51.246 56.5008 52.5404 56.1253C53.264 55.9163 53.5141 55.7354 54.6275 54.6089C55.7547 53.4817 55.9356 53.2453 56.1439 52.5218C56.5332 51.2 56.3941 50.6018 55.1559 48.0829C54.1822 46.1074 54.0568 45.7731 54.015 44.9241C53.9595 44.0477 54.0013 43.8805 54.6132 42.4751C54.975 41.6405 55.3923 40.6244 55.5314 40.2214C55.8514 39.3169 56.3803 38.5516 57.0621 38.065C57.3403 37.8561 58.6347 37.3414 59.9147 36.8961C62.0854 36.1725 62.3081 36.0615 62.9063 35.4633C63.8389 34.5307 64.0472 33.7934 63.9917 31.6507C63.9362 30.0364 63.9081 29.9116 63.5189 29.2716C62.8645 28.2 62.1834 27.7827 59.9428 27.0454C58.8437 26.6836 57.7302 26.2663 57.452 26.1272C56.7284 25.7654 55.9075 24.7773 55.6012 23.9009C55.4484 23.4836 55.0311 22.4263 54.6413 21.5492C53.9869 20.0328 53.9595 19.9075 54.015 18.9749C54.0842 18.0985 54.1959 17.7922 55.1559 15.8578C56.3941 13.4089 56.5332 12.7826 56.1576 11.4752C55.9487 10.7934 55.7403 10.4871 54.7242 9.42981C53.7642 8.44174 53.3887 8.1361 52.748 7.89905C51.4263 7.39815 50.7027 7.53725 48.0872 8.83161L45.8746 9.9307L44.7474 9.91699C43.7319 9.91699 43.5092 9.86148 42.4376 9.34622C41.7832 9.03993 41.0041 8.70622 40.6985 8.60891C39.3212 8.16353 38.3194 7.43994 37.8597 6.52175C37.7206 6.25726 37.3033 5.14445 36.9415 4.04536C36.2042 1.80538 35.7869 1.12358 34.7152 0.469218C34.0615 0.0656292 33.9779 0.0519163 32.1552 0.0101206C30.5552 -0.01992 30.1797 0.00816021 29.7069 0.230853ZM34.9248 19.8911C37.332 20.4475 39.92 22.0619 41.5344 24.01C42.4807 25.1508 43.5798 27.3353 43.9971 28.8524C44.4144 30.4524 44.4144 33.3885 43.9834 34.9748C42.7308 39.6219 39.0717 43.0727 34.3965 44.047C32.7547 44.3807 29.944 44.2416 28.3858 43.7408C23.7804 42.2799 20.4825 38.4673 19.7452 33.7784C19.5362 32.4011 19.6616 29.9521 20.0371 28.6721C21.0252 25.1659 23.2932 22.4243 26.5069 20.8106C29.1224 19.5019 31.9606 19.1956 34.9248 19.8911Z"/>
</svg>
