<svg width="64" height="68" viewBox="0 0 64 68" xmlns="http://www.w3.org/2000/svg">
<path d="M17.9491 67.9155H4.28977C1.92658 67.9155 0 65.989 0 63.6258V4.28977C0 1.92658 1.92658 0 4.28977 0H17.9699C20.3331 0 22.2597 1.92658 22.2597 4.28977V63.6327C22.2458 65.989 20.3123 67.9155 17.9491 67.9155Z"/>
<path d="M59.7033 67.9155H46.044C43.6808 67.9155 41.7542 65.989 41.7542 63.6258V4.28977C41.7542 1.92658 43.6808 0 46.044 0H59.7102C62.0734 0 64 1.92658 64 4.28977V63.6327C64 65.989 62.0665 67.9155 59.7033 67.9155Z"/>
</svg>
