<svg width="40" height="42" viewBox="0 0 40 42" fill="none" xmlns="http://www.w3.org/2000/svg">
<path d="M21.8713 15.8804C21.8713 15.354 21.6409 14.8491 21.2307 14.4768C20.8206 14.1045 20.2643 13.8954 19.6842 13.8954C19.1041 13.8954 18.5478 14.1045 18.1377 14.4768C17.7275 14.8491 17.4971 15.354 17.4971 15.8804V23.8207C17.4971 24.3471 17.7275 24.852 18.1377 25.2243C18.5478 25.5966 19.1041 25.8057 19.6842 25.8057C20.2643 25.8057 20.8206 25.5966 21.2307 25.2243C21.6409 24.852 21.8713 24.3471 21.8713 23.8207V15.8804Z" fill="#FFFFFF"/>
<path d="M33.4478 8.52184L31.9715 9.86175L35.0641 12.6686L36.5405 11.3287C36.7493 11.1456 36.916 10.9265 37.0306 10.6844C37.1452 10.4422 37.2056 10.1817 37.2081 9.91813C37.2106 9.65455 37.1553 9.39316 37.0453 9.14921C36.9353 8.90525 36.7729 8.68362 36.5676 8.49723C36.3622 8.31085 36.118 8.16345 35.8492 8.06364C35.5804 7.96383 35.2924 7.91361 35.002 7.9159C34.7116 7.91819 34.4246 7.97295 34.1578 8.07698C33.8909 8.18102 33.6496 8.33225 33.4478 8.52184Z" fill="#FFFFFF"/>
<path fill-rule="evenodd" clip-rule="evenodd" d="M7.36718e-08 23.8207C-0.000320585 20.4562 1.04612 17.16 3.01889 14.3115C4.99165 11.4631 7.81054 9.17806 11.1511 7.71956C14.4916 6.26106 18.2181 5.68834 21.9015 6.06732C25.5848 6.4463 29.0755 7.76157 31.9715 9.86175L35.0641 12.6686C37.0265 14.8984 38.3718 17.5223 38.9875 20.3209C39.6031 23.1194 39.4711 26.011 38.6025 28.7538C37.734 31.4965 36.1541 34.0105 33.9952 36.0852C31.8364 38.16 29.1613 39.7352 26.1939 40.679C23.2266 41.6227 20.0533 41.9076 16.9397 41.5097C13.8261 41.1118 10.8629 40.0428 8.29803 38.392C5.73317 36.7413 3.64133 34.5569 2.19762 32.0217C0.753907 29.4866 0.000340536 26.6744 7.36718e-08 23.8207ZM21.8713 15.8804C21.8713 15.354 21.6409 14.8491 21.2307 14.4768C20.8206 14.1045 20.2643 13.8954 19.6842 13.8954C19.1041 13.8954 18.5478 14.1045 18.1377 14.4768C17.7275 14.8491 17.4971 15.354 17.4971 15.8804V23.8207C17.4971 24.3471 17.7275 24.852 18.1377 25.2243C18.5478 25.5966 19.1041 25.8057 19.6842 25.8057C20.2643 25.8057 20.8206 25.5966 21.2307 25.2243C21.6409 24.852 21.8713 24.3471 21.8713 23.8207V15.8804Z"/>
<path d="M10.9357 1.98505C10.9357 1.45859 11.1661 0.953679 11.5763 0.581409C11.9864 0.209139 12.5427 0 13.1228 0H26.2456C26.8257 0 27.382 0.209139 27.7921 0.581409C28.2023 0.953679 28.4327 1.45859 28.4327 1.98505C28.4327 2.51152 28.2023 3.01643 27.7921 3.3887C27.382 3.76097 26.8257 3.97011 26.2456 3.97011H13.1228C12.5427 3.97011 11.9864 3.76097 11.5763 3.3887C11.1661 3.01643 10.9357 2.51152 10.9357 1.98505Z" fill="#FFFFFF"/>
</svg>
