<svg viewBox="0 0 35 34" xmlns="http://www.w3.org/2000/svg">
<path d="M17.3313 8.49827C18.8714 8.49827 20.2935 8.87982 21.5978 9.63946C22.8985 10.3991 23.9322 11.4293 24.6918 12.7335C25.448 14.0343 25.8296 15.4564 25.8296 16.9965C25.8296 18.5366 25.448 19.9588 24.6884 21.263C23.9287 22.5638 22.8985 23.5974 21.5943 24.3571C20.2936 25.1132 18.8714 25.4948 17.3313 25.4948C15.7912 25.4948 14.369 25.1132 13.0648 24.3536C11.7641 23.594 10.7304 22.5638 9.97076 21.2595C9.21459 19.9588 8.83303 18.5366 8.83303 16.9965C8.83303 15.4564 9.21459 14.0343 9.97423 12.7301C10.7339 11.4293 11.7641 10.3956 13.0683 9.63599C14.369 8.87982 15.7912 8.49827 17.3313 8.49827ZM8.32314 24.586C8.7151 24.586 9.04809 24.7247 9.32559 25.0057C9.60308 25.2867 9.74183 25.6231 9.74183 26.0116C9.74183 26.3967 9.60308 26.7262 9.32212 27.0071L7.32069 29.0086C7.03973 29.2895 6.70673 29.4283 6.32518 29.4283C5.93322 29.4283 5.60022 29.2895 5.32273 29.012C5.04523 28.7345 4.90649 28.4015 4.90649 28.0096C4.90649 27.6107 5.04177 27.2742 5.31579 27.0037L7.31722 25.0022C7.59818 24.7282 7.93464 24.586 8.32314 24.586ZM17.3313 28.3287C17.7233 28.3287 18.0563 28.4675 18.3337 28.7449C18.6112 29.0224 18.75 29.3554 18.75 29.7474V32.5813C18.75 32.9733 18.6112 33.3063 18.3337 33.5838C18.0563 33.8613 17.7233 34 17.3313 34C16.9393 34 16.6063 33.8613 16.3288 33.5838C16.0514 33.3063 15.9126 32.9733 15.9126 32.5813V29.7474C15.9126 29.3554 16.0514 29.0224 16.3288 28.7449C16.6063 28.4675 16.9393 28.3287 17.3313 28.3287ZM1.74999 15.5813H4.5839C4.97586 15.5813 5.30885 15.7201 5.58635 15.9976C5.86384 16.275 6.00259 16.608 6.00259 17C6.00259 17.392 5.86384 17.725 5.58635 18.0024C5.30885 18.2799 4.97586 18.4187 4.5839 18.4187H1.74999C1.35803 18.4187 1.02503 18.2799 0.74754 18.0024C0.470046 17.725 0.331299 17.392 0.331299 17C0.331299 16.608 0.470046 16.275 0.74754 15.9976C1.02503 15.7201 1.3615 15.5813 1.74999 15.5813ZM17.3313 11.3322C15.7669 11.3322 14.4315 11.8872 13.325 12.9937C12.2185 14.1002 11.6635 15.4356 11.6635 17C11.6635 18.5644 12.2185 19.8998 13.325 21.0063C14.4315 22.1128 15.7669 22.6678 17.3313 22.6678C18.8957 22.6678 20.2311 22.1128 21.3376 21.0063C22.4441 19.8998 22.9991 18.5644 22.9991 17C22.9991 15.4356 22.4441 14.1002 21.3376 12.9937C20.2311 11.8837 18.8957 11.3322 17.3313 11.3322ZM26.3499 24.586C26.7349 24.586 27.0644 24.7247 27.3454 25.0057L29.3468 27.0071C29.6278 27.2881 29.7665 27.6246 29.7665 28.0131C29.7665 28.3981 29.6278 28.7276 29.3468 29.0086C29.0658 29.2895 28.7328 29.4283 28.3513 29.4283C27.9593 29.4283 27.6263 29.2895 27.3454 29.0086L25.3439 27.0106C25.0699 26.7366 24.9346 26.4071 24.9346 26.0151C24.9346 25.6231 25.0734 25.2901 25.3509 25.0092C25.6284 24.7282 25.9579 24.586 26.3499 24.586ZM6.32171 4.55784C6.70673 4.55784 7.03626 4.69659 7.31722 4.97756L9.31865 6.97898C9.59961 7.25995 9.73836 7.59294 9.73836 7.97449C9.73836 8.36646 9.59961 8.69945 9.32212 8.97694C9.04462 9.25444 8.71163 9.39318 8.31967 9.39318C7.92077 9.39318 7.58431 9.25791 7.31375 8.98388L5.31232 6.98245C5.0383 6.70843 4.90302 6.37543 4.90302 5.97654C4.90302 5.58457 5.04177 5.25158 5.31926 4.97409C5.59675 4.69659 5.92975 4.55784 6.32171 4.55784ZM17.3313 0C17.7233 0 18.0563 0.138747 18.3337 0.416242C18.6112 0.693736 18.75 1.02673 18.75 1.41869V4.2526C18.75 4.64456 18.6112 4.97756 18.3337 5.25505C18.0563 5.53254 17.7233 5.67129 17.3313 5.67129C16.9393 5.67129 16.6063 5.53254 16.3288 5.25505C16.0514 4.97756 15.9126 4.64456 15.9126 4.2526V1.41522C15.9126 1.02326 16.0514 0.690267 16.3288 0.412773C16.6063 0.138747 16.9393 0 17.3313 0ZM30.0787 15.5813H32.9126C33.3046 15.5813 33.6376 15.7201 33.9151 15.9976C34.1925 16.275 34.3313 16.608 34.3313 17C34.3313 17.392 34.1925 17.725 33.9151 18.0024C33.6376 18.2799 33.3046 18.4187 32.9126 18.4187H30.0787C29.6867 18.4187 29.3537 18.2799 29.0762 18.0024C28.7988 17.725 28.66 17.392 28.66 17C28.66 16.608 28.7988 16.275 29.0762 15.9976C29.3537 15.7201 29.6867 15.5813 30.0787 15.5813ZM28.3513 4.55784C28.7363 4.55784 29.0658 4.69659 29.3468 4.97756C29.6278 5.25852 29.7665 5.59151 29.7665 5.97307C29.7665 6.36503 29.6278 6.69802 29.3468 6.97898L27.3454 8.98388C27.0714 9.25791 26.7418 9.39318 26.3499 9.39318C25.944 9.39318 25.6076 9.25791 25.337 8.99082C25.0665 8.72026 24.9346 8.3838 24.9346 7.97796C24.9346 7.586 25.0699 7.25648 25.3439 6.98245L27.3454 4.98102C27.6263 4.70006 27.9628 4.55784 28.3513 4.55784Z"/>
</svg>
