<svg width="42" height="45" viewBox="0 0 42 45" fill="none" xmlns="http://www.w3.org/2000/svg">
<path d="M12.9481 34.5957H8.42248C7.87025 34.5957 7.42128 34.1467 7.42128 33.5945V33.0961C7.42128 32.5439 7.87025 32.0949 8.42248 32.0949H12.4946C12.4497 31.6011 12.4228 31.1027 12.4228 30.5954C12.4228 30.2586 12.4363 29.9264 12.4587 29.5942H8.42697C7.87474 29.5942 7.42577 29.1452 7.42577 28.593V28.0946C7.42577 27.5424 7.87474 27.0934 8.42697 27.0934H12.8269C13.0244 26.2314 13.2938 25.3963 13.6305 24.5927H8.42248C7.87025 24.5927 7.42128 24.1437 7.42128 23.5915V23.0931C7.42128 22.5409 7.87025 22.0919 8.42248 22.0919H14.9595C15.5566 21.185 16.2435 20.3454 17.0112 19.5822C16.9798 19.5867 16.9529 19.5912 16.9214 19.5912H8.42248C7.87025 19.5912 7.42128 19.1422 7.42128 18.59V18.0916C7.42128 17.5394 7.87025 17.0904 8.42248 17.0904H16.917C17.4692 17.0904 17.9182 17.5394 17.9182 18.0916V18.59C17.9182 18.6483 17.9092 18.7067 17.9002 18.7651C20.5985 16.4753 24.096 15.088 27.9122 15.088C30.8368 15.088 33.9104 13.0573 33.9104 10.1328V9.17959C33.9104 8.03472 32.9406 7.10984 31.7419 7.10984C31.0079 7.10984 30.4129 7.70483 30.4129 8.43879V9.10775C30.4129 10.2112 29.5184 11.1057 28.415 11.1057H6.42457C5.32115 11.1057 4.42666 10.2112 4.42666 9.10775V8.43879C4.42666 7.70483 3.83167 7.10984 3.09771 7.10984C1.89897 7.10984 0.929199 8.03921 0.929199 9.17959V39.018C0.929199 40.1629 1.89897 41.0922 3.09771 41.0922H9.03459C11.895 41.0922 13.6857 37.3593 12.9481 34.5957Z" />
<path d="M26.9154 4.6091C23.9609 4.6091 21.4063 1.56066 18.5601 0.768227C18.1974 0.667259 17.815 0.613281 17.4197 0.613281C17.0245 0.613281 16.6421 0.667259 16.2794 0.768228C13.4332 1.56066 10.8785 4.6091 7.92407 4.6091V4.6091C5.33391 4.6091 5.48197 9.18021 7.93107 10.0233C8.09094 10.0783 8.25508 10.109 8.42242 10.109H26.4126C26.5815 10.109 26.7472 10.0777 26.9086 10.0217C29.3522 9.17281 29.5023 4.6091 26.9154 4.6091V4.6091ZM17.4197 6.6115C16.4545 6.6115 15.6688 5.8258 15.6688 4.86052C15.6688 3.89524 16.45 3.10954 17.4197 3.10954C18.385 3.10954 19.1707 3.89075 19.1707 4.86052C19.1707 5.8258 18.385 6.6115 17.4197 6.6115Z"/>
<path d="M37.8254 20.6866C32.3525 15.2137 23.4764 15.2137 18.0034 20.6866C12.5305 26.1596 12.5305 35.0357 18.0034 40.5086C23.4764 45.9815 32.3525 45.9815 37.8254 40.5086C43.2983 35.0312 43.2983 26.1596 37.8254 20.6866ZM23.8364 37.3256C22.7592 37.4232 21.0878 35.6598 21.1866 34.5827C21.2805 33.5586 22.5176 33.1969 23.2448 33.9241L25.8412 36.5205C26.2071 36.8864 26.1249 37.1182 25.6096 37.1649C25.1307 37.2083 24.4901 37.2663 23.8364 37.3256ZM34.8128 28.8579L27.9122 35.5924C27.9152 35.5893 25.3274 33.2483 23.7024 31.772C22.8437 30.992 22.8388 30.1927 23.6781 29.392L29.6497 23.6947C30.2243 23.12 31.2884 23.12 31.8631 23.6947L34.8128 26.6444C35.392 27.2236 35.392 28.2832 34.8128 28.8579Z"/>
<path d="M23.2448 33.9241L25.8412 36.5205C26.2071 36.8864 26.1249 37.1182 25.6096 37.1649L23.8364 37.3256C22.7592 37.4232 21.0878 35.6598 21.1866 34.5827C21.2805 33.5586 22.5176 33.1969 23.2448 33.9241Z" fill="white"/>
<path d="M34.8128 28.8579L27.9122 35.5924C27.9152 35.5893 25.3274 33.2483 23.7024 31.772C22.8437 30.992 22.8388 30.1927 23.6781 29.392L29.6497 23.6947C30.2243 23.12 31.2884 23.12 31.8631 23.6947L34.8128 26.6444C35.392 27.2236 35.392 28.2832 34.8128 28.8579Z" fill="white"/>
<path d="M16.9214 19.5912C16.9529 19.5912 16.9798 19.5867 17.0112 19.5822L17.9002 18.7651C17.9092 18.7067 17.9182 18.6483 17.9182 18.59V18.0916C17.9182 17.5394 17.4692 17.0904 16.917 17.0904H8.42248C7.87025 17.0904 7.42128 17.5394 7.42128 18.0916V18.59C7.42128 19.1422 7.87025 19.5912 8.42248 19.5912H16.9214Z" fill="white"/>
<path d="M8.42248 24.5927H13.6305L14.9595 22.0919H8.42248C7.87025 22.0919 7.42128 22.5409 7.42128 23.0931V23.5915C7.42128 24.1437 7.87025 24.5927 8.42248 24.5927Z" fill="white"/>
<path d="M8.42697 29.5942H12.4587L12.8269 27.0934H8.42697C7.87474 27.0934 7.42577 27.5424 7.42577 28.0946V28.593C7.42577 29.1452 7.87474 29.5942 8.42697 29.5942Z" fill="white"/>
<path d="M8.42248 34.5957H12.9481L12.4946 32.0949H8.42248C7.87025 32.0949 7.42128 32.5439 7.42128 33.0961V33.5945C7.42128 34.1467 7.87025 34.5957 8.42248 34.5957Z" fill="white"/>
<path d="M17.4197 6.6115C16.4545 6.6115 15.6688 5.8258 15.6688 4.86052C15.6688 3.89524 16.45 3.10954 17.4197 3.10954C18.385 3.10954 19.1707 3.89075 19.1707 4.86052C19.1707 5.8258 18.385 6.6115 17.4197 6.6115Z" fill="white"/>
</svg>
