<svg width="100%" height="100%" viewBox="0 0 31 31" xmlns="http://www.w3.org/2000/svg">
<path d="M14.9957 30.0104C13.8911 30.0104 12.9957 29.1149 12.9957 28.0104L12.9957 2.01036C12.9957 0.905792 13.8911 0.0103607 14.9957 0.0103607C16.1002 0.0103607 16.9957 0.905791 16.9957 2.01036L16.9957 28.0104C16.9957 29.1149 16.1002 30.0104 14.9957 30.0104Z"/>
<path d="M30.025 15.0105C30.025 16.115 29.1296 17.0105 28.025 17.0105L2.02501 17.0105C0.920439 17.0105 0.0250082 16.115 0.0250082 15.0105C0.0250082 13.9059 0.920439 13.0105 2.02501 13.0105L28.025 13.0105C29.1296 13.0105 30.025 13.9059 30.025 15.0105Z"/>
</svg>
