<svg width="35" height="34" viewBox="0 0 35 34" xmlns="http://www.w3.org/2000/svg">
<path d="M26.8139 34H7.84523C3.69973 34 0.331299 30.3252 0.331299 25.8028V8.19724C0.331299 3.67854 3.69973 0 7.84523 0H26.8174C30.9594 0 34.3313 3.67475 34.3313 8.19724V25.8065C34.3278 30.3252 30.9594 34 26.8139 34ZM7.84523 1.7825C4.60168 1.7825 1.96521 4.65873 1.96521 8.19724V25.8065C1.96521 29.3451 4.60168 32.2213 7.84523 32.2213H26.8174C30.0609 32.2213 32.6974 29.3451 32.6974 25.8065V8.19724C32.6974 4.65873 30.0609 1.7825 26.8174 1.7825H7.84523Z" />
<path d="M6.59981 23.5699V9.72618H15.7754V11.3611H8.27882V15.5997H15.3001V17.2233H8.27882V21.935H16.0703V23.5699H6.59981Z"/>
<path d="M18.3737 23.5699V9.72618H20.0978L26.7619 20.5953V9.72618H28.3715V23.5699H26.6474L19.9834 12.6895V23.5699H18.3737Z"/>
</svg>
