<svg width="38" height="38" viewBox="0 0 38 38" xmlns="http://www.w3.org/2000/svg">
<path d="M16.0386 3.41357C17.5991 1.86054 20.1213 1.86054 21.6818 3.41357L22.7045 4.43141C24.2757 5.99505 24.2757 8.53822 22.7045 10.1019L21.6818 11.1197C20.1213 12.6727 17.5991 12.6727 16.0386 11.1197L15.0158 10.1019C13.4446 8.53822 13.4446 5.99505 15.0158 4.43141L16.0386 3.41357Z" />
<path d="M16.0386 26.0614C17.5991 24.5084 20.1213 24.5084 21.6818 26.0614L22.7045 27.0792C24.2757 28.6429 24.2757 31.1861 22.7045 32.7497L21.6818 33.7675C20.1213 35.3206 17.5991 35.3206 16.0386 33.7675L15.0158 32.7497C13.4446 31.1861 13.4446 28.6429 15.0158 27.0792L16.0386 26.0614Z"/>
<path fill-rule="evenodd" clip-rule="evenodd" d="M36.2498 22.3542C38.2105 20.4002 38.2105 17.225 36.2498 15.271L22.3896 1.45839C20.4384 -0.486131 17.282 -0.48613 15.3307 1.45839L1.47055 15.271C-0.490184 17.225 -0.490183 20.4002 1.47055 22.3542L15.3307 36.1668C17.282 38.1113 20.4384 38.1113 22.3896 36.1668L36.2498 22.3542ZM24.0229 4.43903L21.6894 2.10416C20.1271 0.540977 17.5932 0.540975 16.0309 2.10416L13.6974 4.43903C12.1364 6.00094 12.1364 8.53234 13.6974 10.0942L16.0309 12.4291C16.2403 12.6386 16.2403 12.9966 16.0309 13.206L13.6974 15.5409C12.1364 17.1028 12.1364 19.6342 13.6974 21.1961L16.0309 23.531C16.3487 23.8489 16.3487 24.4341 16.0309 24.752L13.6974 27.0869C12.1364 28.6488 12.1364 31.1802 13.6974 32.7421L16.0309 35.0769C17.5932 36.6401 20.1271 36.6401 21.6894 35.0769L24.0229 32.7421C25.584 31.1802 25.584 28.6488 24.0229 27.0869L21.6894 24.752C21.3717 24.4341 21.3717 23.8489 21.6894 23.531L24.0229 21.1961C25.584 19.6342 25.584 17.1028 24.0229 15.5409L21.6894 13.206C21.4801 12.9966 21.4801 12.6386 21.6894 12.4291L24.0229 10.0942C25.584 8.53234 25.584 6.00094 24.0229 4.43903Z" />
<path fill-rule="evenodd" clip-rule="evenodd" d="M36.2498 22.3542C38.2105 20.4002 38.2105 17.225 36.2498 15.271L22.3896 1.45839C20.4384 -0.486131 17.282 -0.48613 15.3307 1.45839L1.47055 15.271C-0.490184 17.225 -0.490183 20.4002 1.47055 22.3542L15.3307 36.1668C17.282 38.1113 20.4384 38.1113 22.3896 36.1668L36.2498 22.3542ZM21.6894 2.10416C20.1271 0.540977 17.5932 0.540975 16.0309 2.10416L13.6974 4.43903C12.1364 6.00094 12.1364 8.53234 13.6974 10.0942L16.0309 12.4291C16.2403 12.6386 16.2403 12.9966 16.0309 13.206L13.6974 15.5409C12.1364 17.1028 12.1364 19.6342 13.6974 21.1961L16.0309 23.531C16.3487 23.8489 16.3487 24.4341 16.0309 24.752L13.6974 27.0869C12.1364 28.6488 12.1364 31.1802 13.6974 32.7421L16.0309 35.0769C17.5932 36.6401 20.1271 36.6401 21.6894 35.0769L24.0229 32.7421C25.584 31.1802 25.584 28.6488 24.0229 27.0869L21.6894 24.752C21.3717 24.4341 21.3717 23.8489 21.6894 23.531L24.0229 21.1961C25.584 19.6342 25.584 17.1028 24.0229 15.5409L21.6894 13.206C21.4801 12.9966 21.4801 12.6386 21.6894 12.4291L24.0229 10.0942C25.584 8.53234 25.584 6.00094 24.0229 4.43903L21.6894 2.10416Z"/>

</svg>
