<svg width="20" height="21" viewBox="0 0 20 21" xmlns="http://www.w3.org/2000/svg">
<path d="M0 1.5C0 0.671573 0.671573 0 1.5 0H18.5C19.3284 0 20 0.671573 20 1.5C20 2.32843 19.3284 3 18.5 3H1.5C0.671573 3 0 2.32843 0 1.5Z" />
<path d="M0 10.5C0 9.67157 0.671573 9 1.5 9H18.5C19.3284 9 20 9.67157 20 10.5C20 11.3284 19.3284 12 18.5 12H1.5C0.671573 12 0 11.3284 0 10.5Z" />
<path d="M0 19.5C0 18.6716 0.671573 18 1.5 18H18.5C19.3284 18 20 18.6716 20 19.5C20 20.3284 19.3284 21 18.5 21H1.5C0.671573 21 0 20.3284 0 19.5Z" />
</svg>
