<svg width="100%" height="100%" viewBox="0 0 43 45" xmlns="http://www.w3.org/2000/svg">
<path d="M34.0251 12.3396C33.8352 12.5296 33.7426 12.7961 33.774 13.0629L33.793 13.225C33.965 14.523 33.7585 15.3998 33.1227 16.1218C32.4093 16.93 31.5926 17.2479 30.3893 17.1792C29.7701 17.1446 29.3921 17.0503 28.2144 16.6462C26.8648 16.182 26.7786 16.1649 26.5038 16.2767C26.1168 16.4401 26.0571 16.5259 25.7904 17.3255C25.4635 18.3057 25.094 18.9589 24.5094 19.5861C23.3659 20.8069 21.767 21.1077 20.28 20.3773C19.3174 19.9045 18.423 18.7183 17.9763 17.3255C17.7702 16.7064 17.684 16.5519 17.4088 16.397C17.0393 16.1734 16.8071 16.2165 15.3973 16.6979C14.1424 17.1361 14.0648 17.1536 13.1538 17.1536C12.294 17.1536 12.1651 17.128 11.6753 16.9044C11.0476 16.6206 10.4374 16.0105 10.1622 15.4088C10.0073 15.0734 9.97318 14.8413 9.96465 13.999C9.95612 12.8469 9.86992 12.6323 9.37155 12.4689C9.14795 12.3917 8.99351 12.3917 8.80404 12.4604C8.03044 12.7271 5.3141 15.2714 4.1876 16.7845C2.48506 19.0537 1.41918 21.4692 0.980525 24.0481C0.739871 25.475 0.782973 27.7186 1.07526 29.18C1.59967 31.8366 2.87164 34.4928 4.65993 36.7108C5.43353 37.6649 7.18725 39.3414 8.18444 40.0808C16.3079 46.1241 27.4489 46.1241 35.5728 40.0808C36.6216 39.3072 38.3493 37.6393 39.1575 36.625C40.9543 34.3644 42.1576 31.8285 42.682 29.1804C42.9482 27.8479 43.0084 25.51 42.8194 24.1599C42.1917 19.8533 39.9656 15.9763 36.5354 13.2169C34.9105 11.9099 34.5756 11.7896 34.0251 12.3396ZM5.81202 25.501C6.14741 25.673 6.31937 26.0856 6.31937 26.7133C6.31937 27.3926 6.53443 28.5703 6.80068 29.3784C8.50232 34.4843 13.9269 38.3783 20.2365 39.023C20.7263 39.0747 21.3369 39.1173 21.5946 39.1173C22.1877 39.1173 22.5402 39.2978 22.7036 39.6934C22.8756 40.0889 22.7898 40.4328 22.463 40.7076C22.2308 40.9056 22.1451 40.9227 21.3625 40.9227C18.9299 40.9227 15.9554 40.1922 13.4968 38.9885C11.4768 37.9998 9.87755 36.8392 8.37346 35.2664C6.0612 32.8419 4.77173 30.1601 4.51356 27.2112C4.41883 26.0852 4.48797 25.7758 4.89161 25.5262C5.21847 25.3291 5.4681 25.3201 5.81202 25.501Z" />
<path d="M5.81202 25.501C6.14741 25.673 6.31937 26.0856 6.31937 26.7133C6.31937 27.3926 6.53443 28.5703 6.80068 29.3784C8.50232 34.4843 13.9269 38.3783 20.2365 39.023C20.7263 39.0747 21.3369 39.1173 21.5946 39.1173C22.1877 39.1173 22.5402 39.2978 22.7036 39.6934C22.8756 40.0889 22.7898 40.4328 22.463 40.7076C22.2308 40.9056 22.1451 40.9227 21.3625 40.9227C18.9299 40.9227 15.9554 40.1922 13.4968 38.9885C11.4768 37.9998 9.87755 36.8392 8.37346 35.2664C6.0612 32.8419 4.77173 30.1601 4.51356 27.2112C4.41883 26.0852 4.48797 25.7758 4.89161 25.5262C5.21847 25.3291 5.4681 25.3201 5.81202 25.501Z" fill="#FFFFFF"/>
<path d="M28.0164 0.700164C24.6208 1.26768 21.8012 3.94945 21.1394 7.24228C21.002 7.91261 20.9589 7.99881 20.7954 7.99881C20.6922 7.99881 20.271 8.05898 19.8499 8.12767C16.8152 8.65208 13.7725 10.5001 12.285 12.7266C11.709 13.5774 11.5886 14.2913 11.9325 14.7982C12.4053 15.5031 13.1533 15.5462 14.8208 14.9531C17.5888 13.973 18.758 13.5864 18.973 13.5864C19.1966 13.5864 19.2137 13.612 19.2137 13.9388C19.2137 14.8588 19.6092 16.6125 20.0048 17.4378C20.4776 18.4435 21.0792 18.9077 21.9044 18.9163C23.2797 18.9248 24.2598 17.1886 24.5265 14.3173C24.5781 13.7498 24.6127 13.6295 24.7415 13.6039C24.9566 13.5608 26.031 13.8962 28.0083 14.6267C30.4324 15.5206 31.1288 15.5808 31.7219 14.9621C31.9625 14.7129 31.9796 14.6442 31.9796 14.0336C31.9796 13.4319 31.945 13.3201 31.6357 12.727C31.2145 11.9449 30.0539 10.6981 29.1685 10.0879C28.3433 9.51188 27.1827 8.94482 26.1769 8.60943C25.3948 8.34273 23.6842 7.99926 23.1598 7.99926C22.8419 7.99926 22.8334 7.81877 23.1252 6.90734C23.8647 4.56904 26.0566 2.79826 28.5925 2.49744C29.5897 2.37711 29.8474 2.28238 30.0023 1.97303C30.2173 1.56041 30.1657 1.22503 29.8388 0.898615C29.5636 0.623389 29.512 0.606327 29.0051 0.614858C28.7038 0.62294 28.2571 0.657062 28.0164 0.700164Z" fill="#FFFFFF"/>
</svg>
